<svg width="80" height="83" viewBox="0 0 80 83" fill="#73c358" xmlns="http://www.w3.org/2000/svg">
<path d="M40.0766 46.8745C42.7281 46.8745 44.8776 44.6277 44.8776 41.8562C44.8776 39.0847 42.7281 36.838 40.0766 36.838C37.4251 36.838 35.2757 39.0847 35.2757 41.8562C35.2757 44.6277 37.4251 46.8745 40.0766 46.8745Z" />
<path d="M40.2713 31.0846C62.2126 1.34689 40.607 0.75824 40.607 0.75824C40.607 0.75824 18.9941 0.823859 40.2713 31.0846Z" />
<path d="M32.9266 34.0944C28.324 -3.14932 12.6493 12.4028 12.6493 12.4028C12.6493 12.4028 -2.58875 28.4237 32.9266 34.0944Z" />
<path d="M29.7687 41.6537C1.3206 18.7173 0.757446 41.3018 0.757446 41.3018C0.757446 41.3018 0.82022 63.8939 29.7687 41.6537Z" />
<path d="M32.6501 49.3308C-2.98263 54.1418 11.8978 70.526 11.8978 70.526C11.8978 70.526 27.225 86.4566 32.6501 49.3308Z" />
<path d="M39.881 52.6316C17.9388 82.3693 39.5453 82.956 39.5453 82.956C39.5453 82.956 61.1573 82.8904 39.881 52.6316Z" />
<path d="M47.2266 49.6208C51.8274 86.8645 67.503 71.3124 67.503 71.3124C67.503 71.3124 82.7419 55.2915 47.2266 49.6208Z" />
<path d="M50.3845 42.0625C78.8345 64.997 79.3958 42.4135 79.3958 42.4135C79.3958 42.4135 79.3321 19.8223 50.3845 42.0625Z" />
<path d="M47.5023 34.3844C83.135 29.5716 68.2554 13.1883 68.2554 13.1883C68.2554 13.1883 52.9282 -2.73943 47.5023 34.3844Z" />
</svg>
